<?xml version="1.0" encoding="UTF-8" standalone="no"?>
<svg
   xmlns:dc="http://purl.org/dc/elements/1.1/"
   xmlns:cc="http://creativecommons.org/ns#"
   xmlns:rdf="http://www.w3.org/1999/02/22-rdf-syntax-ns#"
   xmlns:svg="http://www.w3.org/2000/svg"
   xmlns="http://www.w3.org/2000/svg"
   xmlns:sodipodi="http://sodipodi.sourceforge.net/DTD/sodipodi-0.dtd"
   xmlns:inkscape="http://www.inkscape.org/namespaces/inkscape"
   width="98"
   height="122"
   viewBox="0 0 98 122"
   fill="none"
   version="1.1"
   id="svg69"
   sodipodi:docname="ghost_bike.svg"
   inkscape:version="0.92.4 (5da689c313, 2019-01-14)">
  <defs
     id="defs17" />
  <metadata
     id="metadata73">
    <rdf:RDF>
      <cc:Work
         rdf:about="">
        <dc:format>image/svg+xml</dc:format>
        <dc:type
           rdf:resource="http://purl.org/dc/dcmitype/StillImage" />
      </cc:Work>
    </rdf:RDF>
  </metadata>
  <sodipodi:namedview
     pagecolor="#ffffff"
     bordercolor="#666666"
     borderopacity="1"
     objecttolerance="10"
     gridtolerance="10"
     guidetolerance="10"
     inkscape:pageopacity="0"
     inkscape:window-width="1920"
     inkscape:window-height="1001"
     id="namedview71"
     showgrid="false"
     inkscape:zoom="15.47541"
     inkscape:cx="44.544724"
     inkscape:cy="103.88279"
     inkscape:window-x="0"
     inkscape:window-y="0"
     inkscape:window-maximized="1"
     inkscape:current-layer="g8" />
  <g
     inkscape:groupmode="layer"
     id="layer1"
     inkscape:label="bg"
     style="display:inline">
    <path
       style="fill:#171615"
       d="m 53.0445,112.094 c -1.7831,3.887 -7.3059,3.887 -9.089,0 L 13.2124,45.085 C 11.6928,41.7729 14.1129,38 17.7569,38 h 61.4862 c 3.644,0 6.0641,3.7729 4.5445,7.085 z"
       id="path2"
       inkscape:connector-curvature="0" />
    <circle
       style="fill:#171615"
       cx="49"
       cy="49"
       r="49"
       id="circle4" />
  </g>
  <g
     inkscape:groupmode="layer"
     id="layer2"
     inkscape:label="bicycle"
     style="display:inline">
    <path
       style="stroke:#ffffff;stroke-width:2;filter:url(#filter1_d)"
       inkscape:connector-curvature="0"
       id="path10"
       d="M 45.0763,63.8434 H 29.7114 l 8.3809,-18.5979 h 8.3808 6.0529 6.5184 m 0,0 L 56.7164,40 h 3.2592 3.2592 m -4.1904,5.2455 0.9312,2.3844 1.8624,3.8149 5.1216,12.3986 m -7.9152,-18.5979 -4.4232,7.153 -2.654,4.2918 m -1.7693,2.8613 1.7693,-2.8613 M 41.3515,50.4911 46.0075,60.9822 36.6955,40 l 2.7936,5.7224 m 9.312,16.2135 3.1661,-5.2456" />
    <path
       style="stroke:#ffffff;filter:url(#filter1_d)"
       inkscape:connector-curvature="0"
       id="path12"
       d="m 50.0922,63.032 c 0,1.5788 -1.2466,2.8381 -2.7593,2.8381 -1.5126,0 -2.7592,-1.2593 -2.7592,-2.8381 0,-1.5787 1.2466,-2.838 2.7592,-2.838 1.5127,0 2.7593,1.2593 2.7593,2.838 z" />
    <path
       style="stroke:#ffffff;stroke-width:2;filter:url(#filter1_d)"
       inkscape:connector-curvature="0"
       id="path14"
       d="M 40.2801,62.0784 C 40.2801,68.1329 35.494,73 29.6401,73 23.7861,73 19,68.1329 19,62.0784 c 0,-6.0546 4.7861,-10.9217 10.6401,-10.9217 5.8539,0 10.64,4.8671 10.64,10.9217 z" />
    <g
       style="filter:url(#filter2_d)"
       id="g20">
      <circle
         cx="66"
         cy="63"
         r="11"
         id="circle18"
         style="stroke:#ffffff;stroke-width:2" />
    </g>
  </g>
  <g
     inkscape:groupmode="layer"
     id="layer3"
     inkscape:label="cross">
    <g
       style=""
       id="g8"
       filter="url(#filter0_d)">
      <path
         d="M56.4468 12.3002H49.8793V6.79007C49.8793 6.35374 49.5103 6 49.0552 6H47.2158C46.7606 6 46.3916 6.35374 46.3916 6.79007V12.3002H39.8242C39.369 12.3002 39 12.654 39 13.0903V14.8536C39 15.29 39.369 15.6437 39.8242 15.6437H46.3916V32.2099C46.3916 32.6463 46.7606 33 47.2158 33H49.0552C49.5103 33 49.8793 32.6463 49.8793 32.2099V15.6437H56.4468C56.902 15.6437 57.271 15.29 57.271 14.8536V13.0903C57.271 12.654 56.902 12.3002 56.4468 12.3002Z"
         id="path6"
         fill="#FFFCFC" />
    </g>
  </g>
</svg>
